<svg xmlns="http://www.w3.org/2000/svg" version="1.1" xmlns:xlink="http://www.w3.org/1999/xlink" xmlns:svgjs="http://svgjs.dev/svgjs" width="1440" height="560" preserveAspectRatio="none" viewBox="0 0 1440 560"><g mask="url(&quot;#SvgjsMask1149&quot;)" fill="none"><rect width="1440" height="560" x="0" y="0" fill="rgba(212, 216, 250, 1)"></rect><path d="M1560 560L0 560 L0 148Q53.66 129.66, 72 183.32Q115.28 154.6, 144 197.89Q220.43 154.32, 264 230.75Q273.92 168.67, 336 178.58Q376.97 99.55, 456 140.52Q478.22 90.74, 528 112.96Q617.71 82.67, 648 172.39Q728.09 180.48, 720 260.57Q707.69 128.26, 840 115.95Q917.45 121.4, 912 198.85Q967.72 182.56, 984 238.28Q1006.15 188.44, 1056 210.59Q1085.07 119.66, 1176 148.72Q1255.74 108.46, 1296 188.2Q1367.21 187.41, 1368 258.62Q1394.93 213.56, 1440 240.49Q1456.96 137.45, 1560 154.41z" fill="#182f5d"></path><path d="M1464 560L0 560 L0 370.37Q-0.57 249.8, 120 249.22Q150.23 207.45, 192 237.69Q257.58 231.27, 264 296.85Q320.25 281.11, 336 337.36Q351.12 232.48, 456 247.6Q484.33 203.93, 528 232.26Q576.76 209.02, 600 257.78Q681.36 267.13, 672 348.49Q740.04 296.53, 792 364.57Q810.9 311.47, 864 330.36Q906.56 300.92, 936 343.48Q957.17 244.65, 1056 265.82Q1086.49 224.31, 1128 254.8Q1172.83 179.63, 1248 224.45Q1305.39 209.84, 1320 267.24Q1404.71 279.95, 1392 364.66Q1390.14 290.81, 1464 288.95z" fill="#25467d"></path><path d="M1488 560L0 560 L0 468.96Q-1.46 347.5, 120 346.04Q188.85 294.89, 240 363.74Q321.61 373.35, 312 454.95Q380.36 403.31, 432 471.67Q448.64 416.31, 504 432.96Q578.01 386.97, 624 460.98Q643.66 360.64, 744 380.31Q809.7 326.01, 864 391.71Q953.32 361.03, 984 450.35Q987.56 333.91, 1104 337.47Q1176.02 337.49, 1176 409.51Q1243.14 356.65, 1296 423.79Q1367.96 375.75, 1416 447.72Q1464.2 423.92, 1488 472.12z" fill="#356cb1"></path><path d="M1464 560L0 560 L0 527.9Q8.9 464.8, 72 473.71Q119.7 401.41, 192 449.11Q255.35 440.46, 264 503.81Q344.66 512.47, 336 593.12Q382.18 519.3, 456 565.48Q481.4 470.88, 576 496.28Q602.57 450.85, 648 477.42Q695.88 405.3, 768 453.17Q827.85 441.02, 840 500.87Q924.59 465.46, 960 550.05Q1000.71 470.76, 1080 511.47Q1108.59 468.06, 1152 496.65Q1231.22 455.88, 1272 535.1Q1322.11 513.21, 1344 563.32Q1356.96 456.28, 1464 469.23z" fill="rgba(212, 216, 250, 1)"></path></g><defs><mask id="SvgjsMask1149"><rect width="1440" height="560" fill="#ffffff"></rect></mask></defs></svg>